<svg version="1.1" xmlns="http://www.w3.org/2000/svg" xmlns:xlink="http://www.w3.org/1999/xlink" width="55.54054" height="60.1523" viewBox="0,0,55.54054,60.1523"><g transform="translate(-316.72972,-153.63066)"><g stroke-miterlimit="10"><path d="M368.33937,168.22106c1.20157,2.76274 -3.33057,9.85009 -4.39081,9.19697c-0.77058,-0.47468 -3.44145,-1.07327 -3.44145,-1.95806c0,-0.51603 3.32623,-3.76034 2.88373,-6.37499c-0.31621,-1.86843 -3.99607,-3.77134 -3.47708,-3.77134c1.24526,0 6.98623,-0.40209 8.42561,2.90743z" fill-opacity="0.25098" fill="#000000" stroke="none" stroke-width="0" stroke-linecap="butt"/><path d="M349.97423,213.56207c-26.58469,0.39303 -24.41532,1.63821 -26.56246,-11.52519c-0.09982,-0.39399 0.09662,2.56355 3.5427,3.36725c4.68232,1.09203 32.21261,0.11886 38.732,0.11886c7.42091,0 6.26583,-3.32988 6.29873,-2.39648c0.41051,11.64585 -5.04246,10.1847 -22.01098,10.43556z" fill-opacity="0.25098" fill="#000000" stroke="#424242" stroke-width="0" stroke-linecap="butt"/><path d="M357.39101,165.10316c8.19451,0.74752 13.67383,-2.82823 13.71624,5.84025c0.06606,13.50527 0.3683,31.91214 0.3683,31.91214" fill="none" stroke="#424242" stroke-width="1.5" stroke-linecap="round"/><path d="M320.80022,190.70577c-2.45789,-10.05606 -4.97083,-14.33047 -1.90646,-14.34882c16.67,-0.09985 13.6363,-0.24515 20.34706,-0.31654c13.76396,-0.14643 11.25054,-0.02135 22.07205,0.0686c3.71545,0.03088 5.64783,9.18457 6.67784,13.43512c2.26223,9.33559 5.50338,15.97187 1.95278,15.97444c-7.57228,0.00547 -11.96527,-0.15764 -23.15219,-0.00227c-6.0288,0.08371 -9.16445,0.27173 -18.35464,0.29534c-4.38725,0.01128 -5.23855,-5.29541 -7.63643,-15.1059z" fill="none" stroke="#424242" stroke-width="1.5" stroke-linecap="butt"/><path d="M324.86588,175.99327c0,0 -0.56491,-4.93851 0.22185,-6.14323c0.76121,-1.1656 4.4246,-0.97164 4.4246,-0.97164" fill="none" stroke="#424242" stroke-width="1.5" stroke-linecap="round"/><path d="M326.02749,175.70289c6.08136,-11.01675 4.97982,-10.8439 10.35102,-18.67222c3.29212,-4.72349 2.83971,-3.06913 15.06511,4.45625c12.68681,7.8094 13.41834,6.1693 10.8594,10.59195c-3.50166,6.05196 -1.70369,2.95609 -1.68531,3.02351" fill="none" stroke="#424242" stroke-width="1.5" stroke-linecap="round"/><path d="M356.0842,172.79885l-14.81055,-9.72851" fill="none" stroke="#424242" stroke-width="1.5" stroke-linecap="round"/><path d="M338.95042,167.71679l13.02762,8.17035" fill="none" stroke="#424242" stroke-width="1.5" stroke-linecap="round"/><path d="M343.14728,176.00584l-7.39129,-4.51379" fill="none" stroke="#424242" stroke-width="1.5" stroke-linecap="round"/><path d="M370.88085,198.89755c-0.12304,-0.0667 -0.93991,-4.37407 -3.48264,-11.09797c-1.16075,-3.06943 -2.02417,-8.26932 -2.02417,-8.26932c0,0 5.84683,8.03445 5.84683,8.86639c0,4.4265 1.09865,11.2808 -0.34002,10.5009z" fill-opacity="0.25098" fill="#000000" stroke="#424242" stroke-width="0" stroke-linecap="butt"/></g></g></svg>