<svg version="1.1" xmlns="http://www.w3.org/2000/svg" xmlns:xlink="http://www.w3.org/1999/xlink" width="64.82647" height="52.11477" viewBox="0,0,64.82647,52.11477"><g transform="translate(-312.87326,-156.63018)"><g stroke-miterlimit="10"><path d="M377.65041,192.69699c-0.51664,-1.73146 -0.82107,-4.10027 -1.92537,-6.37357c-0.03122,-0.06426 -0.50666,3.54033 -1.53018,4.00328c-4.02892,1.82233 -15.20614,4.54751 -26.03202,8.17715c-3.60329,1.20809 -13.74216,4.32839 -19.43691,3.94399c-1.85022,-0.12489 -4.29276,-4.01634 -4.49625,-4.00472c-3.19748,0.18246 -10.7512,1.63335 -10.43955,2.66498c1.06803,3.53551 5.43675,9.17887 14.31475,7.24279c8.73426,-1.90474 51.24066,-9.97286 49.54553,-15.6539z" fill-opacity="0.25098" fill="#000000" stroke="#424242" stroke-width="0" stroke-linecap="butt"/><path d="M349.4456,191.15117c-1.69205,-0.28449 -1.79357,-0.34234 -2.19365,-2.74253c-0.10152,-2.42582 1.24398,-5.37504 -0.20033,-6.16297c-1.1596,-0.63261 -3.36226,0.67804 -3.09069,-0.36723c0.38308,-1.47447 1.4405,-2.11111 3.23893,-2.58248c2.88378,-0.75584 3.72143,-0.02397 4.25444,1.17425c0.88656,1.9931 -0.75983,5.84615 -0.24748,7.25969c0.39247,1.08276 1.69023,0.99802 2.9949,0.24077c0.58541,-0.33978 0.38136,1.58631 -0.69707,2.26703c-0.81979,0.51746 -3.53922,1.10628 -4.05902,0.91348z" fill="none" stroke="#424242" stroke-width="1.25" stroke-linecap="butt"/><path d="M349.27076,175.78883c-3.14523,3.07133 -8.6293,-2.01466 -5.59967,-6.08789c2.68101,-3.01465 9.11908,0.02883 7.30237,3.96783zM349.95498,172.86012c0.47237,-2.93079 -3.94769,-4.03003 -5.36451,-2.51725c-1.8579,2.58622 1.36089,6.2817 3.78916,4.50192c0,0 0.5332,-0.51624 0.78224,-0.83c0.27373,-0.34486 0.7931,-1.15467 0.7931,-1.15467z" fill="#424242" stroke="none" stroke-width="0.5" stroke-linecap="butt"/><path d="M325.38708,199.5982c-7.77427,-27.16334 -10.8841,-32.12991 -4.01959,-33.49576c27.76791,-7.68187 40.92003,-12.18729 43.67936,-5.38712c9.24698,22.78849 13.24078,29.38883 7.99616,30.82835c-38.21544,10.48916 -45.86678,14.30584 -47.65592,8.05452z" fill="none" stroke="#424242" stroke-width="1.5" stroke-linecap="butt"/><path d="M324.65647,198.39282c0,0 -4.84816,1.24808 -9.05025,2.65776c-1.79116,0.60088 -2.10173,-1.04618 -1.94873,-2.20896c0.68514,-5.207 3.92671,-29.84295 3.92671,-29.84295" fill="none" stroke="#424242" stroke-width="1.5" stroke-linecap="round"/></g></g></svg>