<svg version="1.1" xmlns="http://www.w3.org/2000/svg" xmlns:xlink="http://www.w3.org/1999/xlink" width="53.89373" height="58.55305" viewBox="0,0,53.89373,58.55305"><g transform="translate(-317.73713,-152.73958)"><g stroke-miterlimit="10"><path d="M349.5712,173.16824c0,0 -3.01665,0.28414 -3.01665,-2.07848c0,-2.36262 9.7333,-11.5572 11.89484,-11.5572c1.21043,0 3.38027,1.57629 3.38027,1.57629c0,0 -2.58545,2.72854 -5.33631,5.46584c-3.04658,3.03157 -6.92215,6.59355 -6.92215,6.59355z" fill-opacity="0.25098" fill="#000000" stroke="#424242" stroke-width="0"/><path d="M334.90749,188.75574c2.75085,-2.7373 4.20926,-3.92896 4.20926,-3.92896c0,0 -1.86246,-4.65005 -3.07289,-4.65005c-2.16154,0 -10.76779,9.39951 -10.76779,11.76212c0,2.36261 0.25027,5.45961 0.25027,5.45961c0,0 6.33457,-5.61116 9.38116,-8.64272z" fill-opacity="0.25098" fill="#000000" stroke="#424242" stroke-width="0"/><path d="M370.91267,166.32401c0,-0.90129 -2.93398,4.19044 -7.69598,10.19963c-3.27516,4.13294 -8.58583,7.62015 -12.73093,12.21901c-7.78053,8.63229 -14.71725,17.68534 -19.32986,17.68534c-10.64294,0 -12.49994,-11.19161 -12.49994,-8.50691c0,2.68471 -0.86963,13.12227 9.77045,13.36876c7.31542,0.16948 14.72642,-7.45011 22.54914,-16.01749c0.86289,-0.94503 1.27744,-2.22364 2.12924,-3.19086c0.85938,-0.97581 3.20887,-1.36642 4.0821,-2.30953c4.01302,-4.33412 8.03868,-7.58421 11.40422,-11.19159c5.00422,-5.36382 2.32156,-11.43607 2.32156,-12.25638z" fill-opacity="0.25098" fill="#000000" stroke="none" stroke-width="0"/><path d="M344.01782,171.72175c4.11575,0 8.16448,3.06521 7.59289,7.11349c-0.24167,1.71166 -1.10631,2.19817 -4.41834,2.00327c-3.02914,-0.17825 -5.18396,-5.42827 -9.02491,-2.74469c-4.55761,3.18432 -11.87681,11.22999 -12.87923,13.25043c-1.05537,2.12713 -0.62585,7.77909 4.93408,7.59774c2.75857,-0.08997 9.88708,-7.00496 13.50483,-10.62548c0.17902,-0.17915 6.38308,0.46288 6.38308,0.46288c0,0 -0.85833,2.38363 -4.06772,5.43878c-12.10092,11.51936 -17.07873,15.9345 -23.79915,8.94049c-5.8485,-6.08659 -6.00865,-13.93705 7.82667,-26.20652c6.62317,-5.87357 5.43705,-5.23042 13.9478,-5.23042z" fill="none" stroke="#424242" stroke-width="1.5"/><path d="M369.93321,167.82023c-3.21123,8.22012 -19.56288,20.87595 -19.56288,20.87595c0,0 -7.14402,-0.47034 -7.48031,-0.71377c-2.58975,-1.87476 -5.05267,-4.3615 -6.16561,-8.02761c-0.24307,-0.80068 2.71022,-2.35428 3.38335,-2.55539c0.88531,-0.26448 2.37075,0.48514 3.60073,1.43879c1.56171,1.21086 2.6963,1.84399 4.37714,1.97597c1.29669,0.10181 1.96228,0.31967 3.34065,-0.97834c3.3718,-3.17522 7.56951,-6.99764 9.97626,-11.00842c2.25012,-3.74976 1.71152,-9.45408 -2.55533,-9.38927c-5.93394,0.09013 -11.43123,12.23931 -13.78988,12.16851c-0.43266,-0.013 -2.97243,-0.02304 -5.04237,-0.06474c-1.61921,-0.03261 -3.0209,0.02037 -2.43843,-0.65725c8.65247,-10.06564 13.46093,-17.39508 22.17199,-17.39508c8.71104,0 12.26645,9.00176 10.18468,14.33067z" fill="none" stroke="#424242" stroke-width="1.5"/></g></g></svg>